<svg width="24" height="25" viewBox="0 0 24 25" fill="none" xmlns="http://www.w3.org/2000/svg">
<path d="M20.625 9.24731H20.25V6.24731C20.2488 5.21231 19.41 4.37353 18.375 4.37231H5.625C4.59 4.37353 3.75122 5.21231 3.75 6.24731V9.24731H3.375C1.512 9.24956 0.00225 10.7593 0 12.6223V17.8723H0.75V20.4973H2.625V17.8723H21.375V20.4973H23.25V17.8723H24V12.6223C23.9977 10.7593 22.488 9.24956 20.625 9.24731ZM4.5 6.24731C4.5 5.62599 5.00367 5.12231 5.625 5.12231H18.375C18.9963 5.12231 19.5 5.62599 19.5 6.24731V9.24731H18.375V7.74731C18.375 7.12599 17.8713 6.62231 17.25 6.62231H13.875C13.2537 6.62231 12.75 7.12599 12.75 7.74731V9.24731H11.25V7.74731C11.25 7.12599 10.7463 6.62231 10.125 6.62231H6.75C6.12867 6.62231 5.625 7.12599 5.625 7.74731V9.24731H4.5V6.24731ZM17.625 7.74731V9.24731H13.5V7.74731C13.5 7.54022 13.6679 7.37231 13.875 7.37231H17.25C17.4571 7.37231 17.625 7.54022 17.625 7.74731ZM10.5 7.74731V9.24731H6.375V7.74731C6.375 7.54022 6.54291 7.37231 6.75 7.37231H10.125C10.3321 7.37231 10.5 7.54022 10.5 7.74731ZM1.875 19.7473H1.5V17.8723H1.875V19.7473ZM22.5 19.7473H22.125V17.8723H22.5V19.7473ZM23.25 17.1223H0.75V15.2473H23.25V17.1223ZM23.25 14.4973H0.75V12.6223C0.751641 11.1733 1.92595 9.99896 3.375 9.99731H20.625C22.074 9.99896 23.2484 11.1733 23.25 12.6223V14.4973Z" fill="#B06100"/>
</svg>
