<svg width="19" height="24" viewBox="0 0 19 24" fill="none" xmlns="http://www.w3.org/2000/svg">
<path d="M17.5662 7.23104C17.1192 7.23104 16.7575 7.62852 16.7575 8.11877V21.2648C16.7575 21.6303 16.5829 21.9484 16.2899 22.1157C15.9961 22.2826 15.6596 22.2575 15.3903 22.0503L10.6103 18.3762C9.75972 17.72 8.61685 17.7187 7.76623 18.3749L2.9847 22.0503C2.7138 22.2575 2.37813 22.2826 2.08511 22.1157C1.79209 21.9484 1.61754 21.6303 1.61754 21.2648V4.56307C1.61754 3.02601 2.75724 1.77547 4.15758 1.77547H10.9784C11.4254 1.77547 11.7872 1.37798 11.7872 0.887733C11.7872 0.397486 11.4254 0 10.9784 0H4.15758C1.86475 0 0 2.04681 0 4.56307V21.2648C0 22.2891 0.512589 23.2185 1.33794 23.6905C2.16251 24.1612 3.14977 24.0906 3.91194 23.505L8.69505 19.8288C8.99439 19.5973 9.38061 19.5982 9.68153 19.8296L14.4631 23.505C14.8911 23.8335 15.3887 24 15.8887 24C16.2812 24 16.6745 23.8977 17.0371 23.6905C17.8624 23.2185 18.375 22.2891 18.375 21.2648V8.11877C18.375 7.62852 18.0133 7.23104 17.5662 7.23104Z" fill="#F59A00"/>
<path d="M17.615 1.979H16.3756V0.739563C16.3756 0.377151 16.0821 0.083313 15.7193 0.083313C15.3566 0.083313 15.0631 0.377151 15.0631 0.739563V1.979H13.8236C13.4609 1.979 13.1674 2.27284 13.1674 2.63525C13.1674 2.99767 13.4609 3.2915 13.8236 3.2915H15.0631V4.53062C15.0631 4.89304 15.3566 5.18687 15.7193 5.18687C16.0821 5.18687 16.3756 4.89304 16.3756 4.53062V3.2915H17.615C17.9777 3.2915 18.2713 2.99767 18.2713 2.63525C18.2713 2.27284 17.9777 1.979 17.615 1.979Z" fill="#F59A00"/>
</svg>
