<svg width="24" height="24" viewBox="0 0 24 24" fill="none" xmlns="http://www.w3.org/2000/svg">
<path d="M18.6215 15.1254C20.9311 16.0521 22.6543 17.2876 23.9613 18.7405C24.2911 21.0933 22.452 22.8182 20.7714 23.8773C16.7888 24.5812 11.132 22.2284 6.45178 17.5482C1.77158 12.868 -0.581222 7.21119 0.122721 3.22858C1.18182 1.54801 2.90673 -0.291053 5.25953 0.0386912C6.71249 1.34577 7.94801 3.06899 8.87469 5.37871C9.02897 5.76324 8.94074 6.20194 8.65882 6.50557C8.19642 7.0036 7.36029 7.84283 6.07068 8.92502C5.74591 9.19755 5.66676 9.66336 5.87399 10.0332C6.77426 11.64 7.94569 13.1951 9.37531 14.6247C10.8044 16.0537 12.3612 17.2273 13.9657 18.1302C14.336 18.3385 14.8031 18.2591 15.0758 17.9333C16.1575 16.6414 16.9963 15.8044 17.4943 15.3416C17.7979 15.0594 18.2368 14.971 18.6215 15.1254Z" fill="white"/>
</svg>
