<svg width="24" height="25" viewBox="0 0 24 25" fill="none" xmlns="http://www.w3.org/2000/svg">
<path d="M22.8 0.434814H20.4C19.7373 0.434814 19.2 0.972073 19.2 1.63481V2.43481H4.8V1.63481C4.8 0.972073 4.26274 0.434814 3.6 0.434814H1.2C0.537258 0.434814 0 0.972073 0 1.63481V4.03481C0 4.69756 0.537258 5.23481 1.2 5.23481H2V19.6348H1.2C0.537258 19.6348 0 20.1721 0 20.8348V23.2348C0 23.8976 0.537258 24.4348 1.2 24.4348H3.6C4.26274 24.4348 4.8 23.8976 4.8 23.2348V22.4348H19.2V23.2348C19.2 23.8976 19.7373 24.4348 20.4 24.4348H22.8C23.4627 24.4348 24 23.8976 24 23.2348V20.8348C24 20.1721 23.4627 19.6348 22.8 19.6348H22V5.23481H22.8C23.4627 5.23481 24 4.69756 24 4.03481V1.63481C24 0.972073 23.4627 0.434814 22.8 0.434814ZM0.8 4.03481V1.63481C0.8 1.4139 0.979086 1.23481 1.2 1.23481H3.6C3.82091 1.23481 4 1.4139 4 1.63481V4.03481C4 4.25573 3.82091 4.43481 3.6 4.43481H1.2C0.979086 4.43481 0.8 4.25573 0.8 4.03481ZM4 23.2348C4 23.4557 3.82091 23.6348 3.6 23.6348H1.2C0.979086 23.6348 0.8 23.4557 0.8 23.2348V20.8348C0.8 20.6139 0.979086 20.4348 1.2 20.4348H3.6C3.82091 20.4348 4 20.6139 4 20.8348V23.2348ZM23.2 20.8348V23.2348C23.2 23.4557 23.0209 23.6348 22.8 23.6348H20.4C20.1791 23.6348 20 23.4557 20 23.2348V20.8348C20 20.6139 20.1791 20.4348 20.4 20.4348H22.8C23.0209 20.4348 23.2 20.6139 23.2 20.8348ZM20.4 19.6348C19.7373 19.6348 19.2 20.1721 19.2 20.8348V21.6348H10V11.6348H10.4C10.8418 11.6348 11.2 11.2766 11.2 10.8348V10.4348H21.2V19.6348H20.4ZM8.8 10.8348V9.23481H10.4V10.8348H8.8ZM21.2 6.43481H20.8C20.5791 6.43481 20.4 6.6139 20.4 6.83481C20.4 7.05573 20.5791 7.23481 20.8 7.23481H21.2V9.63481H11.2V9.23481C11.2 8.79299 10.8418 8.43481 10.4 8.43481H8.8C8.35817 8.43481 8 8.79299 8 9.23481V10.8348C8 11.2766 8.35817 11.6348 8.8 11.6348H9.2V21.6348H6.8V21.2348C6.8 21.0139 6.62091 20.8348 6.4 20.8348C6.17909 20.8348 6 21.0139 6 21.2348V21.6348H4.8V20.8348C4.8 20.1721 4.26274 19.6348 3.6 19.6348H2.8V5.23481H3.6C4.26274 5.23481 4.8 4.69756 4.8 4.03481V3.23481H19.2V4.03481C19.2 4.69756 19.7373 5.23481 20.4 5.23481H21.2V6.43481ZM23.2 4.03481C23.2 4.25573 23.0209 4.43481 22.8 4.43481H20.4C20.1791 4.43481 20 4.25573 20 4.03481V1.63481C20 1.4139 20.1791 1.23481 20.4 1.23481H22.8C23.0209 1.23481 23.2 1.4139 23.2 1.63481V4.03481Z" fill="#B06100"/>
<path d="M18.4 15.6348C18.1791 15.6348 18 15.8139 18 16.0348V17.8692L13.3656 13.2348H15.2C15.4209 13.2348 15.6 13.0557 15.6 12.8348C15.6 12.6139 15.4209 12.4348 15.2 12.4348H12.4C12.1791 12.4348 12 12.6139 12 12.8348V15.6348C12 15.8557 12.1791 16.0348 12.4 16.0348C12.6209 16.0348 12.8 15.8557 12.8 15.6348V13.8004L17.4344 18.4348H15.6C15.3791 18.4348 15.2 18.6139 15.2 18.8348C15.2 19.0557 15.3791 19.2348 15.6 19.2348H18.4C18.6209 19.2348 18.8 19.0557 18.8 18.8348V16.0348C18.8 15.8139 18.6209 15.6348 18.4 15.6348Z" fill="#B06100"/>
<path d="M6.4 18.4348C6.17909 18.4348 6 18.6139 6 18.8348V19.6348C6 19.8557 6.17909 20.0348 6.4 20.0348C6.62091 20.0348 6.8 19.8557 6.8 19.6348V18.8348C6.8 18.6139 6.62091 18.4348 6.4 18.4348Z" fill="#B06100"/>
<path d="M6.4 16.0349C6.17909 16.0349 6 16.214 6 16.4349V17.2349C6 17.4558 6.17909 17.6349 6.4 17.6349C6.62091 17.6349 6.8 17.4558 6.8 17.2349V16.4349C6.8 16.214 6.62091 16.0349 6.4 16.0349Z" fill="#B06100"/>
<path d="M6.4 13.6348C6.17909 13.6348 6 13.8139 6 14.0348V14.8348C6 15.0557 6.17909 15.2348 6.4 15.2348C6.62091 15.2348 6.8 15.0557 6.8 14.8348V14.0348C6.8 13.8139 6.62091 13.6348 6.4 13.6348Z" fill="#B06100"/>
<path d="M6.4 11.2349C6.17909 11.2349 6 11.4139 6 11.6349V12.4349C6 12.6558 6.17909 12.8349 6.4 12.8349C6.62091 12.8349 6.8 12.6558 6.8 12.4349V11.6349C6.8 11.4139 6.62091 11.2349 6.4 11.2349Z" fill="#B06100"/>
<path d="M6.4 8.83472C6.17909 8.83472 6 9.0138 6 9.23472V10.0347C6 10.2556 6.17909 10.4347 6.4 10.4347C6.62091 10.4347 6.8 10.2556 6.8 10.0347V9.23472C6.8 9.0138 6.62091 8.83472 6.4 8.83472Z" fill="#B06100"/>
<path d="M9.59999 6.43481H8.79999C8.57908 6.43481 8.39999 6.6139 8.39999 6.83481C8.39999 7.05573 8.57908 7.23481 8.79999 7.23481H9.59999C9.82091 7.23481 9.99999 7.05573 9.99999 6.83481C9.99999 6.6139 9.82091 6.43481 9.59999 6.43481Z" fill="#B06100"/>
<path d="M12 6.43481H11.2C10.9791 6.43481 10.8 6.6139 10.8 6.83481C10.8 7.05573 10.9791 7.23481 11.2 7.23481H12C12.2209 7.23481 12.4 7.05573 12.4 6.83481C12.4 6.6139 12.2209 6.43481 12 6.43481Z" fill="#B06100"/>
<path d="M14.4 6.43481H13.6C13.3791 6.43481 13.2 6.6139 13.2 6.83481C13.2 7.05573 13.3791 7.23481 13.6 7.23481H14.4C14.6209 7.23481 14.8 7.05573 14.8 6.83481C14.8 6.6139 14.6209 6.43481 14.4 6.43481Z" fill="#B06100"/>
<path d="M16.8 6.43481H16C15.7791 6.43481 15.6 6.6139 15.6 6.83481C15.6 7.05573 15.7791 7.23481 16 7.23481H16.8C17.0209 7.23481 17.2 7.05573 17.2 6.83481C17.2 6.6139 17.0209 6.43481 16.8 6.43481Z" fill="#B06100"/>
<path d="M19.2 6.43481H18.4C18.1791 6.43481 18 6.6139 18 6.83481C18 7.05573 18.1791 7.23481 18.4 7.23481H19.2C19.4209 7.23481 19.6 7.05573 19.6 6.83481C19.6 6.6139 19.4209 6.43481 19.2 6.43481Z" fill="#B06100"/>
<path d="M7.2 6.43481H6.4C6.17909 6.43481 6 6.6139 6 6.83481V7.63481C6 7.85573 6.17909 8.03481 6.4 8.03481C6.62091 8.03481 6.8 7.85573 6.8 7.63481V7.23481H7.2C7.42091 7.23481 7.6 7.05573 7.6 6.83481C7.6 6.6139 7.42091 6.43481 7.2 6.43481Z" fill="#B06100"/>
</svg>
