<svg width="16" height="16" viewBox="0 0 16 16" fill="none" xmlns="http://www.w3.org/2000/svg">
<path d="M14.7373 10.9478C15.2022 10.9479 15.5791 11.3246 15.5791 11.7896V13.1372C15.579 14.7185 14.2971 16.0005 12.7158 16.0005H3.28418C1.70305 16.0005 0.421049 14.7185 0.420898 13.1372V11.7896C0.420898 11.3246 0.797796 10.9479 1.2627 10.9478C1.72775 10.9478 2.10547 11.3245 2.10547 11.7896V13.1372C2.10562 13.7882 2.63314 14.3159 3.28418 14.3159H12.7158C13.3669 14.3159 13.8944 13.7882 13.8945 13.1372V11.7896C13.8945 11.3245 14.2723 10.9478 14.7373 10.9478ZM8 -0.000488281C8.46494 -0.000488281 8.84162 0.376409 8.8418 0.841309V8.91357L11.6152 6.14111C11.9442 5.81235 12.4777 5.81235 12.8066 6.14111C13.1351 6.47009 13.1353 7.00365 12.8066 7.33252L8 12.1382L3.19434 7.33252C2.86557 7.00356 2.86557 6.47007 3.19434 6.14111C3.5233 5.81253 4.05586 5.81244 4.38477 6.14111L7.1582 8.91357V0.841309C7.15838 0.376428 7.53509 -0.000457058 8 -0.000488281Z" fill="white"/>
</svg>
