<?xml version="1.0" encoding="UTF-8"?>
<svg version="1.1" xmlns="http://www.w3.org/2000/svg" width="33" height="35">
<path d="M0 0 C0.66 0 1.32 0 2 0 C2 0.99 2 1.98 2 3 C8.7946081 3.20082586 14.46052918 3.01214487 21 1 C25.49391346 0.5565778 29.01401436 0.77279738 33 3 C33.02887814 6.47914941 33.04675687 9.95826831 33.0625 13.4375 C33.07087891 14.43072266 33.07925781 15.42394531 33.08789062 16.44726562 C33.09111328 17.39150391 33.09433594 18.33574219 33.09765625 19.30859375 C33.10289307 20.18314209 33.10812988 21.05769043 33.11352539 21.95874023 C33 24 33 24 32 25 C30.9275 24.95875 29.855 24.9175 28.75 24.875 C24.79410371 24.79687637 21.38627918 25.57181395 17.5625 26.5625 C11.89955102 27.97493716 7.71433529 28.06538455 2 27 C2 29.64 2 32.28 2 35 C1.34 35 0.68 35 0 35 C0 23.45 0 11.9 0 0 Z M17.75 4 C12.42171288 5.42087657 7.50759792 5.12376625 2 5 C2 11.6 2 18.2 2 25 C10.01841527 25.89093503 11.25920131 26.02223961 18 24 C21.43350363 23.66154299 24.86008426 23.43833243 28.3046875 23.24609375 C30.915759 23.29753541 30.915759 23.29753541 32 22 C32.15322744 19.17413249 32.23162755 16.38956118 32.25 13.5625 C32.270625 12.77294922 32.29125 11.98339844 32.3125 11.16992188 C32.36473586 8.61061392 32.36473586 8.61061392 32 5 C27.36669032 1.91112688 22.88557764 2.41982226 17.75 4 Z " fill="#D17C00" transform="translate(0,0)"/>
</svg>
