<svg width="40" height="40" viewBox="0 0 40 40" fill="none" xmlns="http://www.w3.org/2000/svg">
<rect x="0.5" y="0.5" width="39" height="39" rx="19.5" stroke="#151E2D"/>
<path d="M24.8115 17.7256C24.9 17.6371 24.9 17.4928 24.8115 17.4043L20.1602 12.7539C20.0716 12.6654 19.9284 12.6654 19.8398 12.7539L15.1895 17.4043C15.145 17.4487 15.1231 17.5059 15.123 17.5645C15.123 17.6232 15.1451 17.6812 15.1895 17.7256L15.1895 17.7266C15.278 17.8141 15.4215 17.8137 15.5098 17.7256L18.9199 14.3145L19.7734 13.4609L19.7734 27.0898C19.7735 27.2148 19.875 27.3163 20 27.3164C20.1251 27.3164 20.2265 27.215 20.2266 27.0898L20.2266 13.4609L24.4912 17.7256C24.5797 17.8138 24.723 17.8139 24.8115 17.7256Z" fill="#151E2D" stroke="#151E2D"/>
</svg>
