<svg width="67" height="56" viewBox="0 0 67 56" fill="none" xmlns="http://www.w3.org/2000/svg">
<path d="M14.8118 8.89323C16.8799 8.89323 18.7641 9.15518 20.4645 9.67449C22.1695 10.1938 23.6309 10.9383 24.8487 11.8988C26.0666 12.8593 27.0133 14.0266 27.6843 15.3961C28.3552 16.7656 28.6907 18.2868 28.6907 19.9642C28.6907 21.6416 28.4609 22.2942 28.0014 23.2501C27.5418 24.2014 26.9673 25.0653 26.278 25.8328C25.5886 26.6003 24.8487 27.2851 24.0537 27.8871C23.2586 28.4891 22.5187 29.0406 21.8294 29.5415C21.14 30.0425 20.5656 30.525 20.106 30.9846C19.6464 31.4441 19.4167 31.9129 19.4167 32.3862V34.6933H10.1472V30.8237C10.1472 30.1711 10.3173 29.5507 10.6619 28.9717C11.0066 28.388 11.4432 27.8227 11.9717 27.2759C12.5002 26.729 13.0655 26.1913 13.6675 25.6582C14.2695 25.1297 14.8348 24.5782 15.3633 24.0038C15.8918 23.4293 16.3284 22.8365 16.6731 22.216C17.0177 21.6002 17.1878 20.9201 17.1878 20.1756C17.1878 19.4311 17.1096 19.2059 16.9488 18.7463C16.7879 18.2868 16.5536 17.8869 16.2457 17.5423C15.9377 17.1976 15.5609 16.9218 15.1197 16.7058C14.6785 16.4944 14.173 16.3887 13.6123 16.3887C13.0517 16.3887 12.2704 16.522 11.8108 16.784C11.3513 17.0505 10.9928 17.3952 10.7401 17.818C10.4827 18.2408 10.3127 18.7279 10.2253 19.2748C10.138 19.8217 10.0921 20.3778 10.0921 20.943V21.6692C10.0921 21.9081 10.1105 22.1517 10.1472 22.3953H0.160848C0.124083 22.0414 0.0919137 21.7013 0.0551485 21.375C0.0183832 21.0487 0 20.7087 0 20.3548C0 18.5901 0.372249 17 1.11215 15.5891C1.85205 14.1782 2.88148 12.9696 4.19584 11.9723C5.5102 10.9751 7.07272 10.2122 8.88341 9.67908C10.6941 9.15058 12.6656 8.88403 14.8026 8.88403L14.8118 8.89323Z" fill="url(#paint0_linear_3073_4774)"/>
<path d="M19.5498 38.1078H10.1793V46.8533H19.5498V38.1078Z" fill="url(#paint1_linear_3073_4774)"/>
<path d="M58.305 8.1946C67.8456 17.7352 69.0635 32.4459 61.9586 43.3054L64.6103 53.9306L54.3803 51.0675C44.9087 57.6025 32.3166 57.6439 22.8036 51.1916V4.8122C33.6999 -2.58222 48.6495 -1.45628 58.3096 8.1992L58.305 8.1946Z" fill="url(#paint2_linear_3073_4774)"/>
<path d="M25.5472 8.19462C24.6924 6.91243 23.7686 5.79109 22.8036 4.80762V51.187C23.7686 50.2081 24.6924 49.0776 25.5472 47.8C32.8635 36.8623 32.8635 19.1323 25.5472 8.19462Z" fill="url(#paint3_linear_3073_4774)"/>
<defs>
<linearGradient id="paint0_linear_3073_4774" x1="20.7264" y1="21.7932" x2="7.59203" y2="21.7932" gradientUnits="userSpaceOnUse">
<stop stop-color="#B06100"/>
<stop offset="0.2" stop-color="#C37100"/>
<stop offset="0.5" stop-color="#DE8700"/>
<stop offset="0.8" stop-color="#EF9500"/>
<stop offset="1" stop-color="#F59A00"/>
</linearGradient>
<linearGradient id="paint1_linear_3073_4774" x1="20.7263" y1="42.4829" x2="7.59193" y2="42.4829" gradientUnits="userSpaceOnUse">
<stop stop-color="#B06100"/>
<stop offset="0.2" stop-color="#C37100"/>
<stop offset="0.5" stop-color="#DE8700"/>
<stop offset="0.8" stop-color="#EF9500"/>
<stop offset="1" stop-color="#F59A00"/>
</linearGradient>
<linearGradient id="paint2_linear_3073_4774" x1="58.8703" y1="27.9974" x2="24.1317" y2="27.9974" gradientUnits="userSpaceOnUse">
<stop stop-color="#F59A00"/>
<stop offset="0.3" stop-color="#F19600"/>
<stop offset="0.5" stop-color="#E68D00"/>
<stop offset="0.7" stop-color="#D37E00"/>
<stop offset="0.9" stop-color="#B96800"/>
<stop offset="1" stop-color="#B06100"/>
</linearGradient>
<linearGradient id="paint3_linear_3073_4774" x1="22.8725" y1="27.9973" x2="36.4113" y2="27.9973" gradientUnits="userSpaceOnUse">
<stop stop-color="white"/>
<stop offset="0.2" stop-color="#9A9A9A"/>
<stop offset="0.4" stop-color="#F8F8F8"/>
<stop offset="0.5" stop-color="#CACACA"/>
<stop offset="0.6" stop-color="#A2A2A2"/>
<stop offset="0.7" stop-color="#3E3E3E"/>
<stop offset="0.9" stop-color="white"/>
<stop offset="1" stop-color="#9A9A9A"/>
</linearGradient>
</defs>
</svg>
