<svg width="24" height="16" viewBox="0 0 24 16" fill="none" xmlns="http://www.w3.org/2000/svg">
<path d="M7.875 13.125C8.49622 13.125 8.99975 13.7464 9 14.25C9 14.8714 8.49638 15.375 7.875 15.375H1.125C0.503662 15.375 0 14.7537 0 14.25C0.000204208 13.6288 0.503776 13.125 1.125 13.125H7.875ZM22.875 6.875C23.4962 6.87505 23.9998 7.49636 24 8C24 8.62135 23.4964 9.12496 22.875 9.125H1.125C0.503662 9.12495 0 8.50368 0 8C0.000122328 7.37876 0.503725 6.87504 1.125 6.875H22.875ZM22.875 0.625C23.4963 0.625047 24 1.24633 24 1.75C24 2.37135 23.4964 2.87496 22.875 2.875H1.125C0.503662 2.87495 0 2.25368 0 1.75C3.98879e-05 1.12869 0.503674 0.625039 1.125 0.625H22.875Z" fill="white"/>
</svg>
