<svg width="40" height="40" viewBox="0 0 40 40" fill="none" xmlns="http://www.w3.org/2000/svg">
<g clip-path="url(#clip0_3073_4703)">
<path d="M29.2186 12.1836C23.2738 12.1836 18.4373 17.0201 18.4373 22.9648C18.4373 24.4237 18.7356 25.8609 19.2998 27.1875H11.263V23.1244C11.263 22.6929 10.9133 22.3431 10.4818 22.3431C10.0503 22.3431 9.70055 22.6929 9.70055 23.1244V27.9687C9.70055 28.4002 10.0503 28.75 10.4818 28.75H20.1216C20.3427 29.0981 20.584 29.4346 20.8455 29.7568C20.8575 29.7752 20.8703 29.793 20.884 29.8105L27.6177 38.4375H23.9559C23.5244 38.4375 23.1746 38.7873 23.1746 39.2187C23.1746 39.6502 23.5244 40 23.9559 40H34.5062C34.9377 40 35.2875 39.6502 35.2875 39.2187C35.2875 38.7873 34.9377 38.4375 34.5062 38.4375H30.819L37.5903 29.7584C37.5931 29.7548 37.5958 29.7512 37.5985 29.7477C39.1472 27.8363 39.9998 25.4287 39.9998 22.9648C39.9998 17.02 35.1634 12.1836 29.2186 12.1836ZM36.3681 28.7842C36.3584 28.7961 36.3491 28.8083 36.3402 28.8205L29.2185 37.9489L22.1702 28.9191C22.1516 28.889 22.1309 28.86 22.108 28.8323C20.7486 27.1869 19.9999 25.1031 19.9999 22.9648C19.9999 17.8816 24.1355 13.7461 29.2187 13.7461C34.3019 13.7461 38.4374 17.8816 38.4374 22.9648C38.4373 25.0803 37.7025 27.147 36.3681 28.7842Z" fill="#B06100"/>
<path d="M35.3166 21.1572C35.1844 20.7464 34.7442 20.5206 34.3335 20.6528C33.9228 20.7849 33.697 21.225 33.8291 21.6358C34.389 23.3755 33.9347 25.2583 32.6436 26.5494C30.7551 28.438 27.6821 28.438 25.7935 26.5494C24.8787 25.6346 24.3748 24.4182 24.3748 23.1244C24.3748 21.8307 24.8786 20.6143 25.7935 19.6993C27.028 18.4648 28.8409 17.9896 30.5248 18.4591C30.9402 18.575 31.3712 18.3321 31.4871 17.9164C31.603 17.5008 31.3601 17.07 30.9445 16.9541C28.7183 16.3333 26.3212 16.962 24.6887 18.5946C23.4787 19.8046 22.8123 21.4133 22.8123 23.1245C22.8123 24.8357 23.4787 26.4444 24.6887 27.6544C25.9376 28.9033 27.578 29.5278 29.2186 29.5278C30.8591 29.5278 32.4996 28.9033 33.7485 27.6544C35.4559 25.947 36.0567 23.4575 35.3166 21.1572Z" fill="#B06100"/>
<path d="M33.7555 18.6014L33.7484 18.5944C33.4434 18.2893 32.9487 18.2893 32.6435 18.5944C32.3384 18.8995 32.3384 19.3942 32.6435 19.6993L32.6506 19.7064C32.8032 19.8589 33.0031 19.9352 33.203 19.9352C33.403 19.9352 33.603 19.8589 33.7555 19.7064C34.0605 19.4013 34.0605 18.9066 33.7555 18.6014Z" fill="#B06100"/>
<path d="M18.3073 32.8125H0.78125C0.349766 32.8125 0 33.1623 0 33.5938C0 34.0252 0.349766 34.375 0.78125 34.375H17.526V39.2188C17.526 39.6502 17.8758 40 18.3073 40C18.7387 40 19.0885 39.6502 19.0885 39.2188V33.5938C19.0885 33.1623 18.7387 32.8125 18.3073 32.8125Z" fill="#B06100"/>
<path d="M14.2563 0C13.8248 0 13.4751 0.349766 13.4751 0.78125V6.40672H0.78125C0.349766 6.40672 0 6.75648 0 7.18797C0 7.61945 0.349766 7.96922 0.78125 7.96922H14.2563C14.6878 7.96922 15.0376 7.61945 15.0376 7.18797V0.78125C15.0376 0.349766 14.6878 0 14.2563 0Z" fill="#B06100"/>
<path d="M6.70719 12.0317H0.78125C0.349766 12.0317 0 12.3815 0 12.813C0 13.2445 0.349766 13.5942 0.78125 13.5942H5.92594V27.1875H0.78125C0.349766 27.1875 0 27.5373 0 27.9688C0 28.4003 0.349766 28.75 0.78125 28.75H6.70719C7.13867 28.75 7.48844 28.4003 7.48844 27.9688V12.813C7.48844 12.3815 7.13867 12.0317 6.70719 12.0317Z" fill="#B06100"/>
<path d="M11.0344 19.8383C10.8891 19.693 10.6875 19.6094 10.482 19.6094C10.2758 19.6094 10.075 19.693 9.92969 19.8383C9.7836 19.9836 9.70078 20.1852 9.70078 20.3906C9.70078 20.5969 9.7836 20.7977 9.92969 20.943C10.075 21.0891 10.2758 21.1719 10.482 21.1719C10.6875 21.1719 10.8883 21.0891 11.0344 20.943C11.1797 20.7977 11.2633 20.5961 11.2633 20.3906C11.2633 20.1852 11.1797 19.9836 11.0344 19.8383Z" fill="#B06100"/>
<path d="M20 12.0317H10.4818C10.0503 12.0317 9.70055 12.3815 9.70055 12.813V17.1485C9.70055 17.5799 10.0503 17.9297 10.4818 17.9297C10.9133 17.9297 11.263 17.5799 11.263 17.1485V13.5942H20C20.4315 13.5942 20.7812 13.2445 20.7812 12.813C20.7812 12.3815 20.4315 12.0317 20 12.0317Z" fill="#B06100"/>
<path d="M31.25 0C30.8185 0 30.4688 0.349766 30.4688 0.78125V6.40586L18.8122 6.40672V0.78125C18.8122 0.349766 18.4624 0 18.0309 0C17.5995 0 17.2497 0.349766 17.2497 0.78125V7.18797C17.2497 7.39516 17.332 7.59391 17.4785 7.74039C17.625 7.88688 17.8238 7.96922 18.031 7.96922L31.25 7.96828C31.6815 7.96828 32.0313 7.61844 32.0313 7.18703V0.78125C32.0313 0.349766 31.6815 0 31.25 0Z" fill="#B06100"/>
<path d="M39.2188 6.40672H35.7812V0.78125C35.7812 0.349766 35.4315 0 35 0C34.5685 0 34.2188 0.349766 34.2188 0.78125V7.18797C34.2188 7.61945 34.5685 7.96922 35 7.96922H39.2188C39.6502 7.96922 40 7.61945 40 7.18797C40 6.75648 39.6502 6.40672 39.2188 6.40672Z" fill="#B06100"/>
<path d="M39.2187 12.0317H36.7518C36.3203 12.0317 35.9705 12.3815 35.9705 12.813C35.9705 13.2445 36.3203 13.5942 36.7518 13.5942H39.2187C39.6502 13.5942 40 13.2445 40 12.813C40 12.3815 39.6502 12.0317 39.2187 12.0317Z" fill="#B06100"/>
</g>
<defs>
<clipPath id="clip0_3073_4703">
<rect width="40" height="40" fill="white"/>
</clipPath>
</defs>
</svg>
