<svg width="40" height="40" viewBox="0 0 40 40" fill="none" xmlns="http://www.w3.org/2000/svg">
<g clip-path="url(#clip0_3073_4715)">
<path d="M37.6568 16.4568C37.0104 15.894 38.756 17.414 37.6568 16.4568V16.4568Z" fill="#B06100"/>
<path d="M37.6568 16.4568C36.9436 15.8356 36.0124 15.1872 36.0544 14.1448C36.0996 13.0328 36.5108 11.9604 36.6544 10.86C36.7868 9.8456 36.7056 8.7572 35.9652 7.98C35.3076 7.2892 34.3388 7.0404 33.4252 6.9104C32.4024 6.7648 31.2812 6.83 30.3024 6.4684C29.3916 6.1312 29.052 4.8664 28.7068 4.06C28.3424 3.2088 27.9516 2.3164 27.282 1.6556C26.5144 0.897598 25.472 0.693198 24.446 0.991598C23.2752 1.3324 22.2932 2.1028 21.222 2.6556C20.8276 2.8596 20.364 3.092 19.9064 3.054C19.3724 3.0096 18.8592 2.7088 18.4032 2.4508C17.3704 1.8668 16.35 1.1088 15.1572 0.897198C14.1248 0.713998 13.1692 1.1056 12.4996 1.8948C11.8836 2.6208 11.524 3.5272 11.154 4.3932C10.766 5.3028 10.4252 6.3112 9.37241 6.5664C7.5776 7.002 5.06561 6.5304 3.82081 8.2404C3.188 9.1096 3.23361 10.234 3.4076 11.2436C3.58841 12.29 4.04481 13.406 3.94161 14.4784C3.8516 15.4136 2.7192 16.1272 2.0764 16.6928C1.3428 17.338 0.571605 18.046 0.202005 18.9736C-0.650395 21.1128 1.3628 22.6536 2.76 23.9028C3.1232 24.228 3.514 24.57 3.7696 24.9904C4.0176 25.3988 3.96441 25.9036 3.89801 26.3552C3.73601 27.4592 3.362 28.5272 3.3008 29.6468C3.2452 30.6632 3.52241 31.674 4.36641 32.3092C5.12721 32.882 6.1172 33.0428 7.0404 33.1444C7.5568 33.2008 8.07561 33.2344 8.5912 33.2976C9.06841 33.356 9.64281 33.4124 10.0444 33.7048C10.408 33.9696 10.6244 34.4432 10.8124 34.8368C11.0504 35.3352 11.2524 35.8492 11.4776 36.3524C11.8508 37.1876 12.2964 38.0624 13.0464 38.622C13.9572 39.3016 15.0776 39.236 16.0856 38.8172C17.1988 38.3548 18.1464 37.568 19.2628 37.1156C20.3124 36.6912 21.2224 37.3156 22.1132 37.8444C23.106 38.4344 24.1852 39.1484 25.3844 39.1484C26.396 39.1484 27.2132 38.5564 27.7712 37.7516C28.3372 36.9352 28.6676 35.9876 29.0736 35.0892C29.2712 34.6516 29.4816 34.1712 29.822 33.8236C30.1544 33.4844 30.6876 33.4016 31.136 33.3352C32.9224 33.068 35.5212 33.2944 36.4336 31.3288C36.8808 30.3664 36.7064 29.2436 36.4968 28.2444C36.384 27.7036 36.2468 27.1688 36.1488 26.6256C36.0664 26.1676 35.9548 25.6012 36.1464 25.1552C36.5016 24.3292 37.4568 23.7256 38.106 23.1444C38.7772 22.5436 39.4608 21.8756 39.8 21.0232C40.5668 19.1 38.974 17.6036 37.6568 16.4568ZM37.9808 20.1628C37.7932 20.9252 36.9124 21.5376 36.352 22.0236C36.542 21.8588 36.702 21.7188 36.3436 22.0308C35.5412 22.73 34.64 23.4728 34.256 24.5004C33.8284 25.6432 34.1504 26.9184 34.4092 28.0612C34.5568 28.7112 35.11 30.244 34.3996 30.7364C34.0472 30.9808 33.568 31.0464 33.154 31.1052C32.5828 31.1856 32.0064 31.2208 31.4328 31.2816C30.398 31.3924 29.2916 31.5824 28.5028 32.3184C27.718 33.0504 27.3152 34.1044 26.9036 35.07C26.642 35.6824 26.1768 37.2248 25.2944 37.1436C24.8056 37.0984 24.3344 36.8184 23.916 36.5828C23.3576 36.268 22.8184 35.9212 22.2524 35.6212C21.1988 35.0628 20.1 34.7492 18.9272 35.114C17.7628 35.4764 16.7856 36.2384 15.7104 36.7884C15.3664 36.964 14.8416 37.2556 14.4392 37.122C14.0372 36.9916 13.786 36.5032 13.6036 36.158C13.0908 35.1876 12.7752 34.1212 12.1948 33.1852C11.6184 32.2548 10.8036 31.7032 9.74041 31.4632C8.6668 31.2212 7.556 31.2524 6.478 31.0436C6.1328 30.9764 5.662 30.8852 5.43961 30.5796C5.18681 30.232 5.29041 29.6608 5.35041 29.2716C5.53241 28.0864 5.9544 26.9316 5.9524 25.7216C5.9504 24.5468 5.38201 23.646 4.564 22.8472C3.7884 22.0892 2.7532 21.452 2.1792 20.5144C1.6276 19.6124 2.73441 18.782 3.33961 18.2472C4.1556 17.5256 5.08561 16.8228 5.598 15.8364C6.15721 14.7588 5.94201 13.5088 5.69481 12.376C5.57481 11.8276 5.43601 11.2816 5.3508 10.726C5.2908 10.336 5.18681 9.7652 5.44001 9.4176C5.66241 9.112 6.1332 9.0208 6.47881 8.9536C7.038 8.8452 7.6092 8.8072 8.1752 8.7544C9.2156 8.658 10.352 8.544 11.2232 7.9104C12.086 7.2824 12.5392 6.2436 12.9468 5.2928C13.156 4.8044 13.3552 4.3096 13.604 3.8396C13.7864 3.4944 14.0376 3.0056 14.4396 2.8752C14.8456 2.7452 15.3632 3.0316 15.7104 3.2092C16.2792 3.5004 16.8164 3.8488 17.3712 4.1648C18.3844 4.742 19.4912 5.2324 20.6796 4.9872C21.8664 4.742 22.8792 3.9988 23.916 3.414C24.3344 3.178 24.806 2.8984 25.2948 2.8532C25.7344 2.8124 26.0136 3.1872 26.222 3.5232C27.336 5.3148 27.578 7.7488 29.8952 8.4376C30.694 8.6748 31.5352 8.726 32.3604 8.8028C32.9984 8.862 34.0396 8.8536 34.5192 9.3612C34.96 9.8276 34.6436 10.8604 34.5296 11.3944C34.3276 12.3436 34.0516 13.2964 34.0536 14.2744C34.0568 16.1928 35.5916 17.266 36.8788 18.438C37.302 18.8228 38.1452 19.4932 37.9808 20.1628Z" fill="#B06100"/>
<path d="M26.0832 14.7608C23.5212 17.5532 20.9592 20.3452 18.3972 23.1376C18.3028 23.2408 18.2988 23.3096 18.1776 23.2376C17.8172 23.0252 17.4568 22.8124 17.0964 22.6004C16.0784 22.0008 15.0608 21.4008 14.0428 20.8008C13.6796 20.5868 13.3324 20.3608 12.8844 20.5016C12.0608 20.7596 11.9548 21.8924 12.6868 22.3236C13.4584 22.7784 14.2296 23.2328 15.0012 23.6876C15.9284 24.2336 16.856 24.7804 17.7832 25.3268C18.3744 25.6752 18.8956 25.5524 19.3448 25.0632C20.732 23.5512 22.1192 22.0392 23.506 20.5268C24.6168 19.3164 25.7276 18.1056 26.838 16.8948C27.072 16.64 27.3056 16.3852 27.5396 16.1304C28.4212 15.1696 26.9652 13.7984 26.0832 14.7608Z" fill="#B06100"/>
</g>
<defs>
<clipPath id="clip0_3073_4715">
<rect width="40" height="40" fill="white"/>
</clipPath>
</defs>
</svg>
