<svg width="40" height="40" viewBox="0 0 40 40" fill="none" xmlns="http://www.w3.org/2000/svg">
<path d="M31.8467 26.6331C33.239 27.6441 33.8969 30.6277 34.0337 31.6943L35.072 39.5264L36.1569 39.384L35.1195 31.5428C35.0976 31.3694 34.5483 27.239 32.4945 25.7572C31.8065 25.2974 31.0693 24.9151 30.2956 24.6185C30.2491 24.583 30.1989 24.5547 30.1432 24.5355L29.6916 24.3758C29.0091 24.1122 28.2965 23.8658 27.6122 23.6523L27.1898 23.5045C27.1478 23.489 27.1049 23.4799 27.0602 23.4753C25.916 23.1131 24.9115 22.8457 24.3732 22.7052V21.5082C26.0073 20.3403 26.9781 18.4552 26.9763 16.447V15.5255C27.1587 15.5921 27.3513 15.6268 27.5438 15.6295C28.4571 15.6295 29.1971 14.8896 29.1971 13.9762V12.5018C29.1971 12.1012 29.0492 11.7153 28.7837 11.4178C28.9598 11.1368 29.0492 10.8102 29.0419 10.4799V9.85033C29.0675 9.39139 28.9224 8.93884 28.6359 8.57844C28.4872 8.42333 28.2965 8.31202 28.0867 8.26001C27.9571 6.7664 27.2482 2.38138 23.4662 0.667877H23.4334C22.448 0.245433 21.3905 0.0191564 20.3203 0.00182067H20.0055C18.9818 -0.0191647 17.9626 0.141419 16.9936 0.475359H16.9681C12.7801 2.0155 12.0256 6.69523 11.907 8.24541C11.6962 8.29742 11.5046 8.40782 11.3568 8.56384C11.0566 8.91968 10.8997 9.37315 10.9188 9.83665V10.4845C10.9106 10.8147 11 11.1405 11.1752 11.4197C10.9115 11.7199 10.7628 12.1058 10.7628 12.5063V13.9835C10.7628 14.8969 11.5037 15.6359 12.4161 15.6359C12.6104 15.6359 12.8011 15.6003 12.9827 15.5319V16.4571C12.9863 18.4425 13.9361 20.3065 15.5402 21.4762V22.7052C13.6059 23.2098 11.6998 23.822 9.83397 24.5419H9.80933C8.98269 24.8512 8.19437 25.2554 7.45806 25.7426C5.40423 27.239 4.85588 31.3649 4.83307 31.5291L3.79566 39.3749L4.88051 39.5154L5.91792 31.6696C6.05661 30.6058 6.71263 27.6258 8.08762 26.6067C8.52466 26.3156 8.98817 26.0674 9.47265 25.8649V30.5647C8.67339 30.8585 7.66518 31.6806 7.66518 33.416V39.4579C7.66518 39.7563 7.90696 39.9999 8.20715 39.9999H31.771C32.0711 39.9999 32.312 39.7563 32.312 39.4579V33.426C32.312 31.6906 31.2974 30.8694 30.5045 30.5766V25.8768C30.9762 26.0848 31.4242 26.3384 31.8467 26.6331ZM28.1222 12.5018V13.9808C28.0985 14.2928 27.8239 14.5264 27.5118 14.5018C27.2345 14.479 27.0137 14.2582 26.9909 13.9808V12.5018C26.9671 12.1888 27.1989 11.916 27.5118 11.8896C27.8239 11.8649 28.0985 12.0985 28.1222 12.4105C28.1259 12.4407 28.1259 12.4717 28.1222 12.5018ZM20.7463 1.11222C21.406 1.1624 22.0566 1.30565 22.6779 1.53375V4.27918C22.2308 4.92243 21.5255 5.33575 20.7463 5.41057V1.11222ZM17.7308 1.3832C18.3586 1.20346 19.0073 1.10401 19.6624 1.08667V5.42516C18.8832 5.35035 18.1761 4.93611 17.7308 4.29287V1.3832ZM12.969 13.9762C12.9444 14.2883 12.6697 14.5228 12.3586 14.4972C12.0812 14.4762 11.8604 14.2554 11.8376 13.9762V12.5018C11.8121 12.1888 12.0456 11.916 12.3586 11.8896C12.6697 11.8649 12.9444 12.0985 12.969 12.4105C12.9717 12.4407 12.9717 12.4717 12.969 12.5018V13.9762ZM12.4015 10.8458C12.2984 10.8458 12.198 10.8558 12.0986 10.8741C12.0146 10.7618 11.9745 10.6204 11.9891 10.4799V9.82296C11.9827 9.65052 12.0256 9.48081 12.1159 9.33391C12.1369 9.31658 12.1643 9.31019 12.1925 9.31384H12.4015C12.7007 9.31384 12.9444 9.07023 12.9444 8.77005C12.9444 8.51731 13.0155 3.7071 16.6433 1.81933V4.42425C16.6433 4.50455 16.6615 4.58301 16.6962 4.65509C16.7336 4.73082 17.6177 6.53556 20.1998 6.53556C22.781 6.53556 23.6688 4.72809 23.7044 4.65509C23.7372 4.58301 23.7564 4.50455 23.7536 4.42425V2.08028C26.9334 4.10947 27.0091 8.52734 27.0091 8.77005C27.0091 9.07023 27.2527 9.31384 27.5511 9.31384H27.7609C27.8148 9.31384 27.8266 9.31384 27.8367 9.33391C27.9288 9.48446 27.9717 9.65782 27.9635 9.83482V10.4799C27.9781 10.6222 27.9361 10.7646 27.8476 10.8741C27.3157 10.7691 26.7655 10.937 26.3841 11.3239H13.5757C13.2646 11.0146 12.8422 10.8449 12.4051 10.8494L12.4015 10.8458ZM14.0538 16.4571V12.4087H25.9133V16.4571C25.9087 19.3001 23.6031 21.6012 20.7609 21.5985H19.1989C16.3595 21.5976 14.0575 19.2974 14.0538 16.4571ZM23.302 22.1377V22.9397L19.9763 27.1924L16.6131 22.9397V22.1149C17.4243 22.4917 18.3066 22.6861 19.1989 22.687H20.7609C21.6378 22.687 22.5046 22.499 23.302 22.1377ZM13.479 24.4196C14.5128 24.1039 15.4033 23.8631 15.865 23.7426L19.9836 28.9497L24.0556 23.7426C24.5237 23.8658 25.4288 24.1039 26.4854 24.4333V30.645H13.4672L13.479 24.4196ZM31.229 33.426V38.9251H8.74912V33.426C8.74912 31.7891 9.96079 31.5537 10.0904 31.5309C10.3595 31.4935 10.5575 31.2636 10.5575 30.9935V25.4242C11.1533 25.1924 11.7865 24.9726 12.4015 24.7737V31.1879C12.4015 31.4881 12.6442 31.7317 12.9444 31.7317H27.0447C27.344 31.7317 27.5876 31.4881 27.5876 31.1879V24.7846L29.4133 25.4242V30.9935C29.4133 31.2645 29.6149 31.4963 29.8832 31.5309C29.9388 31.5382 31.229 31.7317 31.229 33.426Z" fill="#B06100"/>
<path d="M10.0046 32.7426H12.9325V33.7152H10.0046V32.7426Z" fill="#B06100"/>
<path d="M27.0274 32.7426H29.9571V33.7152H27.0274V32.7426Z" fill="#B06100"/>
</svg>
