<svg width="40" height="40" viewBox="0 0 40 40" fill="none" xmlns="http://www.w3.org/2000/svg">
<path d="M35.7148 5.75696H34.2037V4.67743C34.2037 4.18673 34.0087 3.71614 33.6618 3.36917C33.3148 3.0222 32.8442 2.82727 32.3535 2.82727C31.8628 2.82727 31.3922 3.0222 31.0453 3.36917C30.6983 3.71614 30.5034 4.18673 30.5034 4.67743V5.75696H9.49664V4.67743C9.49664 4.18673 9.30171 3.71614 8.95474 3.36917C8.60777 3.0222 8.13718 2.82727 7.64648 2.82727C7.15579 2.82727 6.6852 3.0222 6.33823 3.36917C5.99125 3.71614 5.79633 4.18673 5.79633 4.67743V5.75696H4.28516C3.14906 5.75824 2.05985 6.21012 1.25651 7.01347C0.453164 7.81681 0.00128203 8.90601 0 10.0421L0 32.8875C0.00128203 34.0236 0.453164 35.1128 1.25651 35.9161C2.05985 36.7195 3.14906 37.1714 4.28516 37.1727H35.7148C36.8509 37.1714 37.9401 36.7195 38.7435 35.9161C39.5468 35.1128 39.9987 34.0236 40 32.8875V10.0421C39.9987 8.90601 39.5468 7.81681 38.7435 7.01347C37.9401 6.21012 36.8509 5.75824 35.7148 5.75696ZM31.5971 4.67743C31.5971 4.47682 31.6768 4.28442 31.8187 4.14257C31.9605 4.00071 32.1529 3.92102 32.3535 3.92102C32.5541 3.92102 32.7465 4.00071 32.8884 4.14257C33.0302 4.28442 33.1099 4.47682 33.1099 4.67743V7.9304C33.1099 8.13101 33.0302 8.3234 32.8884 8.46526C32.7465 8.60711 32.5541 8.6868 32.3535 8.6868C32.1529 8.6868 31.9605 8.60711 31.8187 8.46526C31.6768 8.3234 31.5971 8.13101 31.5971 7.9304V4.67743ZM6.89008 4.67743C6.89008 4.47682 6.96977 4.28442 7.11162 4.14257C7.25348 4.00071 7.44587 3.92102 7.64648 3.92102C7.8471 3.92102 8.03949 4.00071 8.18134 4.14257C8.3232 4.28442 8.40289 4.47682 8.40289 4.67743V7.9304C8.40289 8.13101 8.3232 8.3234 8.18134 8.46526C8.03949 8.60711 7.8471 8.6868 7.64648 8.6868C7.44587 8.6868 7.25348 8.60711 7.11162 8.46526C6.96977 8.3234 6.89008 8.13101 6.89008 7.9304V4.67743ZM35.7148 36.0789H4.28516C3.43906 36.0779 2.62791 35.7413 2.02963 35.143C1.43135 34.5447 1.09478 33.7336 1.09375 32.8875V14.639H38.9062V32.8875C38.9052 33.7336 38.5686 34.5447 37.9704 35.143C37.3721 35.7413 36.5609 36.0779 35.7148 36.0789ZM38.9062 13.5452H1.09375V10.0421C1.09478 9.19602 1.43135 8.38487 2.02963 7.78659C2.62791 7.18831 3.43906 6.85174 4.28516 6.85071H5.79633V7.9304C5.79633 8.42109 5.99125 8.89168 6.33823 9.23865C6.6852 9.58563 7.15579 9.78055 7.64648 9.78055C8.13718 9.78055 8.60777 9.58563 8.95474 9.23865C9.30171 8.89168 9.49664 8.42109 9.49664 7.9304V6.85071H30.5034V7.9304C30.5034 8.42109 30.6983 8.89168 31.0453 9.23865C31.3922 9.58563 31.8628 9.78055 32.3535 9.78055C32.8442 9.78055 33.3148 9.58563 33.6618 9.23865C34.0087 8.89168 34.2037 8.42109 34.2037 7.9304V6.85071H35.7148C36.5609 6.85174 37.3721 7.18831 37.9704 7.78659C38.5686 8.38487 38.9052 9.19602 38.9062 10.0421V13.5452Z" fill="#B06100"/>
<path d="M14.8748 29.4347C15.0654 29.2442 15.3746 29.2442 15.5652 29.4347C15.7558 29.6253 15.7557 29.9344 15.5652 30.1251L12.4998 33.1906C12.4045 33.2857 12.2798 33.3331 12.155 33.3331C12.0301 33.3331 11.9047 33.2859 11.8093 33.1906C11.6188 33 11.619 32.6908 11.8093 32.5001L14.8748 29.4347ZM27.0886 16.6867C27.7507 16.7228 28.2771 17.2492 28.3132 17.9113C28.3861 19.2471 28.3151 21.8609 27.0222 24.3605C26.3632 25.6347 25.246 26.9823 23.9568 28.0578C23.9409 28.071 23.9249 28.0846 23.9089 28.0978L23.7205 30.5382C23.6894 30.9399 23.4784 31.2975 23.1423 31.5197L20.6238 33.1847C20.475 33.2831 20.3045 33.3331 20.1326 33.3331C20.0101 33.3331 19.8865 33.3084 19.7703 33.257C19.4911 33.1333 19.2965 32.8791 19.2498 32.5773L18.9314 30.5206C18.8914 30.5279 18.8513 30.5355 18.8113 30.5421C18.7414 30.5538 18.6712 30.5597 18.6013 30.5597C18.2618 30.5597 17.9305 30.4241 17.6853 30.1788L14.821 27.3146C14.5253 27.0189 14.3894 26.5981 14.4578 26.1886C14.4644 26.1486 14.472 26.1085 14.4792 26.0685L12.4226 25.7501C12.1208 25.7034 11.8666 25.5089 11.7429 25.2296C11.6193 24.9502 11.6467 24.631 11.8152 24.3761L13.4802 21.8576C13.7024 21.5215 14.0599 21.3105 14.4617 21.2794L16.9021 21.091C16.9153 21.075 16.9289 21.059 16.9421 21.0431C18.0176 19.7539 19.3652 18.6367 20.6394 17.9777C23.1389 16.6849 25.7527 16.6137 27.0886 16.6867ZM16.3357 30.8956C16.5263 30.7051 16.8355 30.7051 17.0261 30.8956C17.2168 31.0863 17.2167 31.3954 17.0261 31.5861L15.4324 33.1808C15.3371 33.2762 15.2116 33.3234 15.0867 33.3234C14.9617 33.3234 14.8363 33.2761 14.741 33.1808C14.5505 32.9902 14.5507 32.6811 14.741 32.4904L16.3357 30.8956ZM22.8699 28.8732C21.9103 29.5155 20.9027 29.9947 19.8845 30.2941L20.1951 32.298L22.6042 30.7052C22.687 30.6504 22.7391 30.5621 22.7468 30.463L22.8699 28.8732ZM13.4138 27.9738C13.6045 27.7833 13.9137 27.7832 14.1042 27.9738C14.2949 28.1644 14.2947 28.4735 14.1042 28.6642L12.5095 30.2589C12.4143 30.354 12.2896 30.4015 12.1648 30.4015C12.0398 30.4015 11.9144 30.3543 11.8191 30.2589C11.6286 30.0684 11.6288 29.7592 11.8191 29.5685L13.4138 27.9738ZM15.8025 24.8986C15.6387 25.3552 15.5058 25.8405 15.4207 26.3497C15.4042 26.4486 15.4385 26.5511 15.5115 26.6242L18.3757 29.4884C18.4487 29.5614 18.5511 29.5956 18.6501 29.5792C19.0601 29.5107 19.5519 29.3929 20.1003 29.1964L15.8025 24.8986ZM27.0359 17.6613C25.7993 17.594 23.3817 17.6582 21.0876 18.8449C19.9247 19.4464 18.6873 20.476 17.6921 21.6691C17.2154 22.2406 16.6647 23.0076 16.2136 23.9288L21.071 28.7863C21.7768 28.4419 22.5421 27.9656 23.3308 27.3078C24.5239 26.3125 25.5535 25.0752 26.155 23.9122C27.3417 21.6181 27.406 19.2006 27.3386 17.964C27.3296 17.8005 27.1993 17.6703 27.0359 17.6613ZM14.5369 22.2531C14.4378 22.2607 14.3496 22.3128 14.2947 22.3956L12.7019 24.8048L14.7058 25.1154C15.0052 24.0972 15.4844 23.0896 16.1267 22.13L14.5369 22.2531ZM21.3572 20.1906C22.309 19.2388 23.8574 19.2388 24.8093 20.1906C25.2704 20.6517 25.5251 21.265 25.5251 21.9171C25.525 22.5691 25.2704 23.1817 24.8093 23.6427C24.3335 24.1185 23.7087 24.3564 23.0837 24.3566C22.4584 24.3566 21.8332 24.1187 21.3572 23.6427C20.8963 23.1817 20.6424 22.569 20.6423 21.9171C20.6423 21.2651 20.8961 20.6517 21.3572 20.1906ZM23.0837 20.4523C22.7086 20.4523 22.3332 20.5954 22.0476 20.881C21.771 21.1577 21.6189 21.5259 21.6189 21.9171C21.619 22.3082 21.7711 22.6757 22.0476 22.9523C22.6187 23.5234 23.5478 23.5234 24.1189 22.9523C24.3955 22.6757 24.5485 22.3082 24.5486 21.9171C24.5486 21.5259 24.3956 21.1577 24.1189 20.881C23.8335 20.5956 23.4587 20.4524 23.0837 20.4523Z" fill="#B06100"/>
</svg>
