<svg width="58" height="58" viewBox="0 0 58 58" fill="none" xmlns="http://www.w3.org/2000/svg">
<circle opacity="0.56" cx="28.5645" cy="28.9192" r="28.5484" fill="#F59A00"/>
<circle opacity="0.56" cx="28.5642" cy="28.9171" r="24.47" fill="#F59A00"/>
<circle cx="28.5646" cy="28.9203" r="20.3917" fill="white"/>
<path d="M28.5646 8.52856C17.3028 8.52856 8.17293 17.6584 8.17293 28.9203C8.17293 40.1821 17.3028 49.312 28.5646 49.312C39.8265 49.312 48.9563 40.1821 48.9563 28.9203C48.9563 17.6584 39.8265 8.52856 28.5646 8.52856ZM24.0403 19.2342C24.4101 19.2257 24.7988 19.3224 25.1715 19.5368L37.1516 26.9127C37.8045 27.3156 38.2508 28.0549 38.2508 28.9201C38.2508 29.7849 37.8045 30.5246 37.1516 30.9275L25.1715 38.3034C23.6808 39.1622 21.9754 38.068 21.9377 36.2644V21.5605C21.9661 20.2078 22.9312 19.2612 24.0408 19.2345L24.0403 19.2342Z" fill="#F59A00"/>
</svg>
