<svg width="21" height="17" viewBox="0 0 21 17" fill="none" xmlns="http://www.w3.org/2000/svg">
<path d="M7.8335 6.76831C7.55735 6.76831 7.3335 6.99217 7.3335 7.26827C7.3335 7.54447 7.55735 7.76827 7.8335 7.76827H10.3035C10.6585 7.76827 11.0244 7.86357 11.2887 8.06437C11.4429 8.18167 11.5794 8.34677 11.6587 8.58787H7.98654C7.7104 8.58787 7.4865 8.81167 7.4865 9.08787C7.4865 9.36397 7.7107 9.58787 7.98684 9.58787H11.6677C11.6294 9.72137 11.5756 9.83387 11.5114 9.92997C11.3779 10.1298 11.1748 10.2953 10.8863 10.4281C10.2888 10.7031 9.4099 10.8003 8.33624 10.8003C8.14648 10.8003 7.97308 10.9077 7.88857 11.0776C7.80405 11.2475 7.823 11.4506 7.93747 11.6019C8.8916 12.8633 10.152 13.9209 11.6556 14.7111C11.9001 14.8395 12.2024 14.7455 12.3308 14.5011C12.4593 14.2566 12.3653 13.9543 12.1208 13.8259C11.0613 13.2691 10.1415 12.5723 9.3824 11.7649C10.0926 11.7114 10.7577 11.5881 11.3043 11.3365C11.7191 11.1456 12.0841 10.8728 12.3428 10.4857C12.519 10.2221 12.6348 9.92197 12.6912 9.58787H12.9702C13.2464 9.58787 13.4702 9.36397 13.4702 9.08787C13.4702 8.81167 13.2464 8.58787 12.9702 8.58787H12.6877C12.6302 8.27377 12.5181 8.00067 12.3641 7.76827H13.1669C13.4431 7.76827 13.6669 7.54447 13.6669 7.26827C13.6669 6.99217 13.4431 6.76831 13.1669 6.76831H7.8335Z" fill="#B06100"/>
<path d="M15 10.4348C15 9.88251 15.4477 9.43481 16 9.43481C16.5523 9.43481 17 9.88251 17 10.4348C17 10.9871 16.5523 11.4348 16 11.4348C15.4477 11.4348 15 10.9871 15 10.4348Z" fill="#B06100"/>
<path d="M4 9.43481C3.44772 9.43481 3 9.88251 3 10.4348C3 10.9871 3.44772 11.4348 4 11.4348C4.55228 11.4348 5 10.9871 5 10.4348C5 9.88251 4.55228 9.43481 4 9.43481Z" fill="#B06100"/>
<path fill-rule="evenodd" clip-rule="evenodd" d="M5.5 0.434814C4.67157 0.434814 4 1.10638 4 1.93481V2.43481H3.5C2.67157 2.43481 2 3.10638 2 3.93481V4.43481H1.5C0.67157 4.43481 0 5.10638 0 5.93481V14.9348C0 15.7632 0.67157 16.4348 1.5 16.4348H19.5C20.3284 16.4348 21 15.7632 21 14.9348V5.93481C21 5.10638 20.3284 4.43481 19.5 4.43481H19V3.93481C19 3.10638 18.3284 2.43481 17.5 2.43481H17V1.93481C17 1.10638 16.3284 0.434814 15.5 0.434814H5.5ZM16 2.43481V1.93481C16 1.65867 15.7761 1.43481 15.5 1.43481H5.5C5.22386 1.43481 5 1.65867 5 1.93481V2.43481H16ZM18 3.93481V4.43481H3V3.93481C3 3.65867 3.22386 3.43481 3.5 3.43481H17.5C17.7761 3.43481 18 3.65867 18 3.93481ZM1 5.93481C1 5.65867 1.22386 5.43481 1.5 5.43481H19.5C19.7761 5.43481 20 5.65867 20 5.93481V14.9348C20 15.2109 19.7761 15.4348 19.5 15.4348H1.5C1.22386 15.4348 1 15.2109 1 14.9348V5.93481Z" fill="#B06100"/>
</svg>
