<svg width="24" height="23" viewBox="0 0 24 23" fill="none" xmlns="http://www.w3.org/2000/svg">
<path d="M23.625 11.6665C23.625 11.5915 23.6025 11.5183 23.5605 11.4562C23.5185 11.3942 23.4588 11.3461 23.3892 11.3182L16.2909 8.479L23.3892 5.63978C23.4589 5.61198 23.5186 5.56394 23.5607 5.50185C23.6027 5.43977 23.6252 5.3665 23.6252 5.2915C23.6252 5.21651 23.6027 5.14324 23.5607 5.08115C23.5186 5.01907 23.4589 4.97102 23.3892 4.94322L12.1392 0.443221C12.0498 0.407598 11.9502 0.407598 11.8608 0.443221L0.610783 4.94322C0.541132 4.97102 0.481417 5.01907 0.43935 5.08115C0.397283 5.14324 0.374798 5.21651 0.374798 5.2915C0.374798 5.3665 0.397283 5.43977 0.43935 5.50185C0.481417 5.56394 0.541132 5.61198 0.610783 5.63978L7.70906 8.479L0.610783 11.3182C0.541132 11.346 0.481417 11.3941 0.43935 11.4562C0.397283 11.5182 0.374798 11.5915 0.374798 11.6665C0.374798 11.7415 0.397283 11.8148 0.43935 11.8769C0.481417 11.9389 0.541132 11.987 0.610783 12.0148L7.70906 14.854L0.610783 17.6932C0.541132 17.721 0.481417 17.7691 0.43935 17.8312C0.397283 17.8932 0.374798 17.9665 0.374798 18.0415C0.374798 18.1165 0.397283 18.1898 0.43935 18.2519C0.481417 18.3139 0.541132 18.362 0.610783 18.3898L11.8608 22.8898C11.9502 22.9254 12.0498 22.9254 12.1392 22.8898L23.3892 18.3898C23.4589 18.362 23.5186 18.3139 23.5607 18.2519C23.6027 18.1898 23.6252 18.1165 23.6252 18.0415C23.6252 17.9665 23.6027 17.8932 23.5607 17.8312C23.5186 17.7691 23.4589 17.721 23.3892 17.6932L16.2909 14.854L23.3892 12.0148C23.4588 11.9869 23.5185 11.9389 23.5605 11.8768C23.6025 11.8147 23.625 11.7415 23.625 11.6665ZM1.75969 5.2915L12 1.19556L22.2403 5.2915L12 9.38744L1.75969 5.2915ZM22.2403 18.0415L12 22.1374L1.75969 18.0415L8.71875 15.2581L11.8608 16.5148C11.9502 16.5504 12.0498 16.5504 12.1392 16.5148L15.2813 15.2581L22.2403 18.0415ZM12 15.7624L1.75969 11.6665L8.71875 8.88306L11.8608 10.1398C11.9502 10.1754 12.0498 10.1754 12.1392 10.1398L15.2813 8.88306L22.2403 11.6665L12 15.7624Z" fill="#D27C00"/>
</svg>
